<svg width="36" height="36" viewBox="0 0 36 36" fill="none" xmlns="http://www.w3.org/2000/svg">
<g clip-path="url(#clip0_557_89)">
<path d="M18 34C17.5992 34 17.2784 33.6793 17.2784 33.2784V2.7216C17.2784 2.32071 17.5992 2 18 2C18.4009 2 18.7217 2.32071 18.7217 2.7216V33.2784C18.7217 33.6793 18.4009 34 18 34Z" fill="black"/>
<path d="M33.2784 18.7216H2.7216C2.32071 18.7216 2 18.4009 2 18C2 17.5991 2.32071 17.2784 2.7216 17.2784H33.2784C33.6793 17.2784 34 17.5991 34 18C34 18.4009 33.6793 18.7216 33.2784 18.7216Z" fill="black"/>
</g>
<defs>
<clipPath id="clip0_557_89">
<rect width="32" height="32" fill="white" transform="translate(2 2)"/>
</clipPath>
</defs>
</svg>
