<svg xmlns="http://www.w3.org/2000/svg" width="32" height="32" viewBox="0 0 32 32">
  <g id="btn_bag" transform="translate(6 6)">
    <g id="icon_bag">
      <path id="icon_bag-2" data-name="icon_bag" d="M-147.224,129a.8.8,0,0,1-.568-.235A.726.726,0,0,1-148,128.2l1.138-14.213a.767.767,0,0,1,.775-.684h2.5A5.3,5.3,0,0,1-138.431,109a5.3,5.3,0,0,1,5.155,4.307h2.486a.766.766,0,0,1,.774.685l1.128,14.074a.712.712,0,0,1,.027.194.761.761,0,0,1-.777.741Zm.838-1.481h15.895l-1.021-12.73h-1.657v2.256a.751.751,0,0,1-.741.758.75.75,0,0,1-.74-.758v-2.256h-7.563v2.256a.751.751,0,0,1-.741.758.75.75,0,0,1-.74-.758v-2.256h-1.671Zm4.326-14.212h7.258a3.8,3.8,0,0,0-3.629-2.791A3.8,3.8,0,0,0-142.059,113.307Z" transform="translate(148 -109)" fill="#fff"/>
      <rect id="area" width="20" height="20" fill="#fff" opacity="0"/>
    </g>
    <rect id="area-2" data-name="area" width="32" height="32" transform="translate(-6 -6)" fill="#fefcf5" opacity="0"/>
  </g>
</svg>
