<svg xmlns="http://www.w3.org/2000/svg" width="32" height="32" viewBox="0 0 32 32">
  <g id="btn_user" transform="translate(8 8)">
    <path id="icon_user" d="M17.071,12.929a9.962,9.962,0,0,0-3.8-2.384,5.781,5.781,0,1,0-6.542,0A10.016,10.016,0,0,0,0,20H1.562a8.438,8.438,0,0,1,16.875,0H20A9.935,9.935,0,0,0,17.071,12.929ZM10,10a4.219,4.219,0,1,1,4.219-4.219A4.224,4.224,0,0,1,10,10Z" transform="translate(-2 -2)" fill="#fff"/>
    <rect id="area" width="32" height="32" transform="translate(-8 -8)" fill="#fff" opacity="0"/>
  </g>
</svg>
