<svg xmlns="http://www.w3.org/2000/svg" width="32" height="32" viewBox="0 0 32 32">
  <g id="btn_bag" transform="translate(6 6)">
    <rect id="area" width="32" height="32" transform="translate(-6 -6)" fill="#fefcf5" opacity="0"/>
    <path id="btn_heart" d="M18.019,46.285A84.377,84.377,0,0,1,11.233,52.2a1.948,1.948,0,0,1-2.465,0,85.069,85.069,0,0,1-6.786-5.915A7.436,7.436,0,0,1,0,41.417a6.251,6.251,0,0,1,1.586-4.274,5.394,5.394,0,0,1,4-1.743,5.028,5.028,0,0,1,3.141,1.086A6.3,6.3,0,0,1,10,37.815a6.5,6.5,0,0,1,1.27-1.328A5.016,5.016,0,0,1,14.413,35.4a5.382,5.382,0,0,1,4,1.743A6.262,6.262,0,0,1,20,41.417,7.4,7.4,0,0,1,18.019,46.285Z" transform="translate(0 -34.4)" fill="none" stroke="#fff" stroke-width="1.5"/>
  </g>
</svg>
