<svg width="24" height="24" viewBox="0 0 24 24" fill="none" xmlns="http://www.w3.org/2000/svg">
<g clip-path="url(#clip0_640_983)">
<mask id="mask0_640_983" style="mask-type:luminance" maskUnits="userSpaceOnUse" x="-2" y="-2" width="28" height="28">
<path d="M26 -2H-2V26H26V-2Z" fill="white"/>
</mask>
<g mask="url(#mask0_640_983)">
<path fill-rule="evenodd" clip-rule="evenodd" d="M1.9668 3.83351C1.9668 3.44691 2.2802 3.13351 2.6668 3.13351H21.3334C21.7201 3.13351 22.0334 3.44691 22.0334 3.83351C22.0334 4.22011 21.7201 4.53351 21.3334 4.53351H2.6668C2.2802 4.53351 1.9668 4.22011 1.9668 3.83351ZM1.9668 12.0001C1.9668 11.6136 2.2802 11.3001 2.6668 11.3001H21.3334C21.7201 11.3001 22.0334 11.6136 22.0334 12.0001C22.0334 12.3867 21.7201 12.7001 21.3334 12.7001H2.6668C2.2802 12.7001 1.9668 12.3867 1.9668 12.0001ZM2.6668 19.4668C2.2802 19.4668 1.9668 19.7803 1.9668 20.1668C1.9668 20.5534 2.2802 20.8668 2.6668 20.8668H21.3334C21.7201 20.8668 22.0334 20.5534 22.0334 20.1668C22.0334 19.7803 21.7201 19.4668 21.3334 19.4668H2.6668Z" fill="black"/>
</g>
</g>
<defs>
<clipPath id="clip0_640_983">
<rect width="24" height="24" fill="white"/>
</clipPath>
</defs>
</svg>
