<svg width="24" height="24" viewBox="0 0 24 24" fill="none" xmlns="http://www.w3.org/2000/svg">
<path d="M2.99219 10.3814C2.99219 11.3425 3.1815 12.2942 3.5493 13.1822C3.91711 14.0701 4.45622 14.8769 5.13584 15.5566C5.81546 16.2362 6.62229 16.7753 7.51026 17.1431C8.39822 17.5109 9.34994 17.7002 10.3111 17.7002C11.2722 17.7002 12.2239 17.5109 13.1119 17.1431C13.9999 16.7753 14.8067 16.2362 15.4863 15.5566C16.1659 14.8769 16.705 14.0701 17.0728 13.1822C17.4406 12.2942 17.63 11.3425 17.63 10.3814C17.63 9.42023 17.4406 8.46851 17.0728 7.58055C16.705 6.69258 16.1659 5.88576 15.4863 5.20614C14.8067 4.52652 13.9999 3.98742 13.1119 3.61961C12.2239 3.25181 11.2722 3.0625 10.3111 3.0625C9.34994 3.0625 8.39822 3.25181 7.51026 3.61961C6.62229 3.98742 5.81546 4.52652 5.13584 5.20614C4.45622 5.88576 3.91711 6.69258 3.5493 7.58055C3.1815 8.46851 2.99219 9.42023 2.99219 10.3814Z" stroke="black" stroke-width="1.6" stroke-linecap="round" stroke-linejoin="round"/>
<path d="M21.0117 20.9375L16.5078 16.4375" stroke="black" stroke-width="1.6" stroke-linecap="square"/>
</svg>
