<svg width="24" height="24" viewBox="0 0 24 24" fill="none" xmlns="http://www.w3.org/2000/svg">
<path d="M8.05469 6.42031C8.05469 7.5077 8.48665 8.55055 9.25555 9.31945C10.0244 10.0884 11.0673 10.5203 12.1547 10.5203C13.2421 10.5203 14.2849 10.0884 15.0538 9.31945C15.8227 8.55055 16.2547 7.5077 16.2547 6.42031C16.2547 5.33293 15.8227 4.29007 15.0538 3.52118C14.2849 2.75228 13.2421 2.32031 12.1547 2.32031C11.0673 2.32031 10.0244 2.75228 9.25555 3.52118C8.48665 4.29007 8.05469 5.33293 8.05469 6.42031Z" stroke="black" stroke-width="1.6" stroke-linecap="round" stroke-linejoin="round"/>
<path d="M20.9524 21.6723C20.3857 10.5363 3.62145 10.5363 3.05469 21.6723" stroke="black" stroke-width="1.6" stroke-linecap="square" stroke-linejoin="round"/>
</svg>
