<svg width="17" height="17" viewBox="0 0 17 17" fill="none" xmlns="http://www.w3.org/2000/svg">
<path d="M9.96094 14.5938C9.71341 15.1215 9.18128 15.4998 8.50391 15.5C7.81951 15.5 7.28745 15.1204 7.04297 14.5938H9.96094ZM8.50391 1.5C9.23058 1.50022 9.79289 2.02459 10.0059 2.79688L10.0732 3.04395L10.3135 3.13281C11.8382 3.69878 12.5236 5.27478 12.5781 7.97266V7.98242L12.5791 7.99219C12.6037 8.41029 12.6482 8.89973 12.751 9.35547C12.851 9.79854 13.0202 10.2781 13.3379 10.6211L13.3418 10.625C13.6603 10.9614 13.9517 11.2476 14.1787 11.5469C14.4043 11.8443 14.4999 12.0736 14.5 12.2656C14.5 12.3869 14.4593 12.4584 14.4023 12.5068C14.337 12.5622 14.202 12.6269 13.96 12.627H3.04004C2.8025 12.6269 2.6668 12.5625 2.59961 12.5059C2.54069 12.456 2.5 12.3843 2.5 12.2656C2.50013 12.0748 2.59598 11.8454 2.82324 11.5469C3.05241 11.2459 3.34293 10.962 3.66016 10.623L3.65918 10.6221C3.98208 10.2781 4.15207 9.79801 4.25195 9.35547C4.35462 8.90038 4.39979 8.41159 4.42773 7.99707L4.42871 7.98438V7.97168C4.47632 5.27597 5.16811 3.69881 6.68652 3.13281L6.9248 3.04395L6.99316 2.80078C7.21318 2.02379 7.77116 1.5 8.50391 1.5Z" stroke="black"/>
</svg>
