<svg width="36" height="36" viewBox="0 0 36 36" fill="none" xmlns="http://www.w3.org/2000/svg">
<g clip-path="url(#clip0_27237_4533)">
<mask id="mask0_27237_4533" style="mask-type:luminance" maskUnits="userSpaceOnUse" x="0" y="0" width="36" height="36">
<path d="M36 0H0V36H36V0Z" fill="white"/>
</mask>
<g mask="url(#mask0_27237_4533)">
<path d="M26.9137 10.6078C26.4556 10.1015 25.8966 9.69691 25.2725 9.41999C24.6485 9.14307 23.9734 9 23.2907 9C22.608 9 21.9328 9.14307 21.3088 9.41999C20.6848 9.69691 20.1257 10.1015 19.6677 10.6078L18.1997 12.1248L16.7557 10.6078C16.2976 10.1015 15.7386 9.69691 15.1145 9.41999C14.4905 9.14307 13.8154 9 13.1327 9C12.45 9 11.7748 9.14307 11.1508 9.41999C10.5268 9.69691 9.96772 10.1015 9.50966 10.6078C8.53903 11.6585 8 13.0363 8 14.4668C8 15.8972 8.53903 17.2751 9.50966 18.3258L18.1997 26.5658L26.9137 18.3258C27.8703 17.2681 28.3999 15.8928 28.3999 14.4668C28.3999 13.0407 27.8703 11.6654 26.9137 10.6078Z" stroke="#222222" stroke-width="1.53" stroke-miterlimit="10"/>
</g>
</g>
<defs>
<clipPath id="clip0_27237_4533">
<rect width="36" height="36" fill="white"/>
</clipPath>
</defs>
</svg>
