<svg xmlns="http://www.w3.org/2000/svg" width="12" height="12" viewBox="0 0 12 12">
  <defs>
    <style>
      .cls-1 {
        fill: #161412;
        fill-rule: evenodd;
      }
    </style>
  </defs>
  <path id="icon_bag_copy_2" data-name="icon_bag copy 2" class="cls-1" d="M11.5,4H9.9A1.479,1.479,0,0,1,7.1,4H0.727A0.727,0.727,0,0,1,0,3.273,0.273,0.273,0,0,1,.273,3H7.1A1.479,1.479,0,0,1,9.9,3h1.6A0.5,0.5,0,0,1,11.5,4Zm-3-1a0.5,0.5,0,1,0,.5.5A0.5,0.5,0,0,0,8.5,3ZM0.273,8H2.1A1.479,1.479,0,0,1,4.9,8h6.6a0.5,0.5,0,0,1,0,1H4.9A1.479,1.479,0,0,1,2.1,9H0.727A0.727,0.727,0,0,1,0,8.273,0.273,0.273,0,0,1,.273,8ZM3.5,9A0.5,0.5,0,1,0,3,8.5,0.5,0.5,0,0,0,3.5,9Z"/>
</svg>
