<svg xmlns="http://www.w3.org/2000/svg" width="20" height="24" viewBox="0 0 20 24"><g><g><path fill="#6a6a6a" d="M16.625 6.62a3.274 3.274 0 0 1-2.768-1.535l-7.843 5.273c.275.484.432 1.045.432 1.642s-.157 1.157-.431 1.64l7.87 5.23a3.272 3.272 0 0 1 2.74-1.49c1.808 0 3.28 1.483 3.28 3.31 0 1.825-1.472 3.31-3.28 3.31-1.809 0-3.28-1.485-3.28-3.31 0-.312.043-.614.123-.9l-8.073-5.364a3.252 3.252 0 0 1-2.229.884c-1.808 0-3.28-1.484-3.28-3.31S1.358 8.69 3.166 8.69c.86 0 1.643.335 2.229.884l8.058-5.418a3.332 3.332 0 0 1-.108-.844c0-1.825 1.471-3.31 3.28-3.31 1.808 0 3.28 1.485 3.28 3.31s-1.472 3.31-3.28 3.31zm0-5.62c-1.263 0-2.29 1.037-2.29 2.31 0 1.274 1.027 2.311 2.29 2.311 1.263 0 2.29-1.037 2.29-2.31 0-1.274-1.027-2.31-2.29-2.31zM3.166 9.69C1.904 9.689.877 10.726.877 12s1.027 2.31 2.29 2.31c1.262 0 2.288-1.036 2.288-2.31S4.43 9.69 3.166 9.69zm13.459 8.69a2.301 2.301 0 0 0-2.29 2.31c0 1.274 1.027 2.31 2.29 2.31 1.263 0 2.29-1.036 2.29-2.31a2.301 2.301 0 0 0-2.29-2.31z"/></g></g></svg>