<svg width="36" height="44" viewBox="0 0 36 44" fill="none" xmlns="http://www.w3.org/2000/svg">
<path d="M23.7203 17.2916C23.2498 17.2907 22.7873 17.1671 22.3758 16.9322C21.9643 16.6973 21.6174 16.3588 21.3675 15.9485L14.701 20.5624C14.9347 20.9859 15.0682 21.4767 15.0682 21.9991C15.0682 22.5215 14.9347 23.0115 14.7018 23.4341L21.3913 28.0104C21.6435 27.6107 21.9885 27.2821 22.3952 27.0544C22.8019 26.8268 23.2574 26.7072 23.7203 26.7066C25.2571 26.7066 26.5083 28.0042 26.5083 29.6029C26.5083 31.1997 25.2571 32.4991 23.7203 32.4991C22.1827 32.4991 20.9323 31.1997 20.9323 29.6029C20.9323 29.3299 20.9689 29.0656 21.0369 28.8154L14.1748 24.1219C13.6621 24.6187 12.9844 24.8954 12.2802 24.8954C10.7434 24.8954 9.49219 23.5969 9.49219 21.9991C9.49219 20.4014 10.7434 19.1029 12.2802 19.1029C13.0112 19.1029 13.6767 19.396 14.1748 19.8764L21.0241 15.1356C20.963 14.8945 20.9322 14.6463 20.9323 14.3971C20.9323 12.8002 22.1827 11.5009 23.7203 11.5009C25.2571 11.5009 26.5083 12.8002 26.5083 14.3971C26.5083 15.994 25.2571 17.2934 23.7203 17.2934V17.2916ZM23.7203 12.3741C22.6468 12.3741 21.7738 13.2815 21.7738 14.3954C21.7738 15.5101 22.6468 16.4175 23.7203 16.4175C24.7939 16.4175 25.6668 15.5101 25.6668 14.3962C25.6668 13.2815 24.7939 12.375 23.7203 12.375V12.3741ZM12.2802 19.9779C11.2075 19.977 10.3345 20.8844 10.3345 21.9991C10.3345 23.1139 11.2075 24.0204 12.281 24.0204C13.3537 24.0204 14.2258 23.1139 14.2258 21.9991C14.2258 20.8844 13.3546 19.9779 12.2802 19.9779ZM23.7203 27.5816C23.2019 27.5842 22.7057 27.7985 22.3407 28.1775C21.9757 28.5565 21.7718 29.0692 21.7738 29.6029C21.7738 30.7176 22.6468 31.6241 23.7203 31.6241C24.7939 31.6241 25.6668 30.7176 25.6668 29.6029C25.6689 29.0692 25.465 28.5565 25.1 28.1775C24.735 27.7985 24.2388 27.5842 23.7203 27.5816Z" fill="black"/>
</svg>
