<svg xmlns="http://www.w3.org/2000/svg" width="50" height="50" viewBox="0 0 50 50">
  <g id="apple" transform="translate(-184.93)">
    <circle id="타원_4" data-name="타원 4" cx="25" cy="25" r="25" transform="translate(184.93)"/>
    <g id="logo" transform="translate(198.265 13.333)">
      <path id="패스_14367" data-name="패스 14367" d="M20938.506,14819.279a9.548,9.548,0,0,1-1.338-1.687,12.067,12.067,0,0,1-1.416-2.961,11.038,11.038,0,0,1-.59-3.525,6.667,6.667,0,0,1,.8-3.37,4.789,4.789,0,0,1,1.684-1.8,4.379,4.379,0,0,1,2.279-.68,4.752,4.752,0,0,1,1.75.435,4.707,4.707,0,0,0,1.4.43,10.391,10.391,0,0,0,1.545-.51,4.977,4.977,0,0,1,2.1-.389,4.5,4.5,0,0,1,3.5,1.937,4.1,4.1,0,0,0-2.064,3.728,4.341,4.341,0,0,0,2.559,3.978l-.152.462c-.053.148-.107.3-.174.439a8.058,8.058,0,0,1-.469,1c-.172.314-.348.605-.523.881-.25.381-.484.708-.7.981a5.28,5.28,0,0,1-.582.646,2.574,2.574,0,0,1-1.646.767,4.2,4.2,0,0,1-1.531-.4,4.066,4.066,0,0,0-1.623-.371,4.173,4.173,0,0,0-1.68.371,4.2,4.2,0,0,1-1.453.411c-.029,0-.055,0-.084,0A2.277,2.277,0,0,1,20938.506,14819.279Zm4.418-14.27a.7.7,0,0,1-.023-.188v-.183a4.07,4.07,0,0,1,1.031-2.646,4.175,4.175,0,0,1,1.313-1.04,3.785,3.785,0,0,1,1.5-.452,1.37,1.37,0,0,1,.016.2v.2a4.342,4.342,0,0,1-1.012,2.744,3.244,3.244,0,0,1-2.539,1.385A2.862,2.862,0,0,1,20942.924,14805.01Z" transform="translate(-20931.201 -14800.247)" fill="#fff" stroke="rgba(0,0,0,0)" stroke-width="1"/>
      <rect id="사각형_8243" data-name="사각형 8243" width="24" height="24" transform="translate(-0.334 -0.333)" fill="#fff" opacity="0"/>
    </g>
  </g>
</svg>
