<svg width="15" height="11" viewBox="0 0 15 11" fill="none" xmlns="http://www.w3.org/2000/svg">
<path d="M8.95666 10.704C8.76404 10.5067 8.67159 10.2683 8.67929 9.98879C8.68764 9.70927 8.78812 9.47085 8.98074 9.27354L11.7014 6.48655H0.963082C0.690209 6.48655 0.461316 6.39184 0.276405 6.20242C0.092135 6.01366 0 5.77952 0 5.5C0 5.22048 0.092135 4.98601 0.276405 4.79659C0.461316 4.60783 0.690209 4.51345 0.963082 4.51345H11.7014L8.95666 1.70179C8.76404 1.50448 8.66774 1.27001 8.66774 0.998385C8.66774 0.727414 8.76404 0.493273 8.95666 0.295964C9.14928 0.0986544 9.37817 0 9.64334 0C9.90786 0 10.1364 0.0986544 10.3291 0.295964L14.7352 4.80942C14.8315 4.90807 14.8998 5.01495 14.9403 5.13004C14.9801 5.24514 15 5.36846 15 5.5C15 5.63154 14.9801 5.75486 14.9403 5.86995C14.8998 5.98505 14.8315 6.09193 14.7352 6.19058L10.305 10.7287C10.1284 10.9096 9.90786 11 9.64334 11C9.37817 11 9.14928 10.9013 8.95666 10.704Z" fill="#777777"/>
</svg>
